HIERARCHY
ROOT Hips
{
	OFFSET 0.00000 0.00000 0.00000
	CHANNELS 6 Xposition Yposition Zposition Yrotation Zrotation Xrotation 
	JOINT Lumbar
	{
		OFFSET 0 0 0
		CHANNELS 3 Zrotation Xrotation Yrotation
		JOINT Neck
		{
			OFFSET 0.00 0.2701 0.00
			CHANNELS 3 Zrotation Xrotation Yrotation
			End Site
			{
				OFFSET 0.00 0.1379 0.00
			}
		}
		JOINT RightShoulder
		{
			OFFSET 0.0119 0.2289 0.1181
			CHANNELS 3 Zrotation Xrotation Yrotation
			JOINT RightElbow
			{
				OFFSET 0.00 -0.1475 0.00
				CHANNELS 2 Zrotation Yrotation
				JOINT RightWrist
				{
					OFFSET 0.00 -0.1605 0.00
					CHANNELS 2 Zrotation Xrotation
					End Site
					{
						OFFSET 0.0040 -0.1068 0.0006
					}
				}
			}
		}
		JOINT LeftShoulder
		{
			OFFSET 0.0119 0.2289 -0.1181
			CHANNELS 3 Zrotation Xrotation Yrotation
			JOINT LeftElbow
			{
				OFFSET 0.00 -0.1475 0.00
				CHANNELS 2 Zrotation Yrotation
				JOINT LeftWrist
				{
					OFFSET 0.00 -0.1605 0.00
					CHANNELS 2 Zrotation Xrotation
					End Site
					{
						OFFSET 0.0040 -0.1068 -0.0006
					}
				}
			}
		}
	}
	JOINT RightHip
	{
		OFFSET 0.0316 -0.0424 0.0458
		CHANNELS 3 Zrotation Xrotation Yrotation
		JOINT RightKnee
		{
			OFFSET 0.00 -0.2438 0.00
			CHANNELS 1 Zrotation
			JOINT RightAnkle
			{
				OFFSET 0.00 -0.2449 0.00
				CHANNELS 3 Zrotation Xrotation Yrotation
				End Site
				{
					OFFSET 0.1237 -0.0542 0.0051
				}
			}
		}
	}
	JOINT LeftHip
	{
		OFFSET 0.0316 -0.0424 -0.0458
		CHANNELS 3 Zrotation Xrotation Yrotation
		JOINT LeftKnee
		{
			OFFSET 0.00 -0.2438 0.00
			CHANNELS 1 Zrotation
			JOINT LeftAnkle
			{
				OFFSET 0.00 -0.2449 0.00
				CHANNELS 3 Zrotation Xrotation Yrotation
				End Site
				{
					OFFSET 0.1237 -0.0542 -0.0051
				}
			}
		}
	}
}
MOTION
Frames: 34
Frame Time: 0.02
0.03589 0.56516 -0.06049 178.02026 0 -8.19766 15.00554 10.29396 -12.7952 -38.35937 6.88006 6.4403 -20.31365 -83.37124 -50.91134 134.29944 121.26787 40.03913 2.26233 -18.27864 45.1477 31.27341 126.31066 -83.36849 -9.13622 3.76183 -2.3354 13.69369 -39.76665 -15.34064 -9.57961 -0.00033 13.0058 7.22317 -4.85293 21.62493 -17.16365 -0.89437 2.21508 3.35837
0.03428 0.56524 -0.06223 177.54929 0 -8.00248 14.94489 9.97955 -12.20139 -38.07029 6.61058 6.26903 -20.0557 -83.27972 -50.18555 134.30272 120.60634 39.29574 2.25804 -18.34457 44.98953 31.24134 126.11303 -83.42509 -9.08201 3.76661 -2.52596 13.69369 -39.28382 -15.1857 -9.73251 0.00012 13.00617 7.11374 -4.95183 21.37746 -17.11059 -1.0098 2.31721 3.89474
0.03276 0.56548 -0.06394 176.92649 0 -7.73236 14.8573 9.65539 -11.4691 -37.70793 6.31735 6.10704 -20.53892 -83.22652 -50.17111 134.30088 119.86555 38.32728 2.17097 -18.46495 44.73194 31.20088 125.84889 -83.46093 -8.99124 3.75573 -2.72603 13.69369 -38.32538 -14.9063 -9.95186 0.00021 13.00621 7.18506 -5.0398 21.13925 -17.3611 -1.21525 2.42498 4.47057
0.0312 0.56564 -0.06565 176.38101 0 -7.49719 14.78233 9.33912 -10.80317 -37.38143 6.02988 5.93431 -20.72021 -83.16113 -49.86937 134.299 119.14399 37.42243 2.12689 -18.54197 44.5263 31.15086 125.59642 -83.49401 -8.92048 3.74701 -2.92177 13.69369 -37.58063 -14.68444 -10.13103 0.00013 13.00607 7.16516 -5.1357 20.9063 -17.45777 -1.37638 2.52847 5.01741
0.02962 0.56582 -0.06742 175.79678 0 -7.25588 14.70739 9.00704 -10.12091 -37.04734 5.76171 5.78991 -20.75631 -83.07468 -49.41693 134.30696 118.48437 36.67309 2.06617 -18.69644 44.2913 31.1574 125.42523 -83.57686 -8.83476 3.75853 -3.11946 13.69369 -36.8263 -14.45453 -10.34965 0.00029 13.00616 7.18204 -5.22302 20.63504 -17.61711 -1.55433 2.64051 5.61799
0.02811 0.566 -0.06906 175.26001 0 -7.01062 14.62507 8.70618 -9.44077 -36.70945 5.44869 5.58842 -21.2706 -83.0391 -49.44838 134.29354 117.68464 35.55409 2.01935 -18.70175 44.09355 31.04115 125.06404 -83.55565 -8.77226 3.72626 -3.31436 13.69369 -35.98821 -14.21374 -10.50266 0.0003 13.00613 7.1664 -5.32392 20.44441 -17.72075 -1.71727 2.73538 6.11295
0.02674 0.56613 -0.07039 174.87415 0 -6.77096 14.53266 8.49247 -8.79706 -36.39119 5.01476 5.22728 -22.91639 -83.15619 -50.62304 134.21855 116.46209 33.40978 2.01706 -18.29529 44.03005 30.62255 124.23894 -83.20655 -8.77835 3.55443 -3.50247 13.69369 -35.01549 -13.96813 -10.46128 0.00025 13.00613 7.00978 -5.46716 20.48329 -17.58336 -1.82184 2.7838 6.31065
0.02545 0.56624 -0.07159 174.54487 0 -6.53055 14.43285 8.31102 -8.16129 -36.06915 4.53734 4.8085 -25.01805 -83.31943 -52.26261 134.12255 115.1105 30.91191 2.03384 -17.7338 44.00611 30.07355 123.21539 -82.76324 -8.81109 3.34314 -3.6866 13.69369 -33.98109 -13.71728 -10.35145 0.00018 13.00614 6.81567 -5.62349 20.60123 -17.38238 -1.90702 2.81419 6.39886
0.02413 0.56635 -0.07285 174.20128 0 -6.29203 14.33389 8.11585 -7.52402 -35.74045 4.08194 4.41541 -26.9166 -83.44733 -53.70217 134.03911 113.85702 28.6163 2.04927 -17.23591 43.95997 29.5634 122.25556 -82.39046 -8.83307 3.1644 -3.87023 13.69369 -32.99054 -13.47277 -10.27134 0.00012 13.00613 6.64335 -5.77187 20.67682 -17.21941 -1.99738 2.8511 6.53375
0.02277 0.5665 -0.07412 173.80402 0 -6.0444 14.2448 7.91609 -6.87214 -35.44425 3.61601 4.02355 -28.82721 -83.63653 -55.12167 133.94426 112.44101 26.14039 2.02843 -16.77237 43.92922 29.14362 121.41102 -81.89314 -8.84323 2.9232 -4.06408 13.69369 -31.91656 -13.20727 -10.19921 5e-05 13.00613 6.45708 -5.92843 20.77964 -17.02828 -2.106 2.89516 6.68365
0.02153 0.56657 -0.07533 173.53422 0 -5.81644 14.13353 7.73401 -6.25543 -35.08083 3.16216 3.61688 -30.80714 -83.70936 -56.68075 133.86637 111.32523 23.95506 2.09201 -16.19529 43.8758 28.49906 120.27271 -81.64171 -8.89091 2.80323 -4.23544 13.69369 -31.0076 -12.98574 -10.09352 -0 13.00613 6.28883 -6.07114 20.84465 -16.87705 -2.1711 2.92014 6.7751
0.0206 0.56643 -0.07636 173.60116 0 -5.64473 13.96456 7.59042 -5.72619 -34.52932 2.7516 3.16998 -32.89477 -83.44306 -58.53279 133.85539 111.14087 22.69239 2.35228 -15.38073 43.76047 27.3152 118.43316 -82.01541 -8.98212 3.02451 -4.34661 13.69369 -30.57614 -12.88879 -9.91015 -3e-05 13.00613 6.17644 -6.17274 20.78382 -16.84708 -2.11773 2.89514 6.73697
0.0198 0.56622 -0.07733 173.79529 0 -5.493 13.77333 7.46416 -5.2344 -33.91136 2.35519 2.71271 -35.02442 -83.05963 -60.49881 133.85864 111.24719 21.72833 2.7007 -14.45003 43.61868 25.90101 116.29253 -82.65193 -9.11926 3.36939 -4.43508 13.69369 -30.31431 -12.83659 -9.69537 -3e-05 13.00613 6.08294 -6.25994 20.68269 -16.85834 -2.02131 2.85181 6.64264
0.01896 0.56604 -0.07834 173.93306 0 -5.33128 13.59128 7.33139 -4.731 -33.32632 1.95255 2.26889 -37.11673 -82.73319 -62.39875 133.84661 111.17832 20.60767 3.03309 -13.54705 43.4838 24.55913 114.25131 -83.22162 -9.27213 3.66042 -4.53326 13.69369 -29.97258 -12.76325 -9.49578 -5e-05 13.00613 5.98217 -6.35359 20.60114 -16.85267 -1.94616 2.81802 6.57052
0.01808 0.56585 -0.07933 174.06726 0 -5.17301 13.4129 7.19332 -4.20419 -32.72929 1.54649 1.7859 -39.31505 -82.39022 -64.38751 133.87429 111.2995 19.56629 3.27471 -12.74385 43.37529 23.34696 112.3659 -83.57548 -9.27597 3.94213 -4.6338 13.69369 -29.63929 -12.69287 -9.28994 -6e-05 13.00613 5.87552 -6.44814 20.51643 -16.83908 -1.86327 2.77866 6.50865
0.01729 0.56567 -0.08032 174.23759 0 -5.01271 13.22167 7.07084 -3.73591 -32.14189 1.15281 1.38312 -41.28073 -82.05614 -66.19737 133.81886 111.07966 18.43091 3.71345 -11.70804 43.20071 21.81459 110.08104 -84.43049 -9.595 4.27079 -4.72419 13.69369 -29.33077 -12.62722 -9.09061 -7e-05 13.00613 5.78499 -6.53717 20.42842 -16.85037 -1.78643 2.74657 6.41352
0.01666 0.56553 -0.08131 174.48271 0 -4.83865 13.00055 6.97989 -3.41239 -31.59408 0.77913 1.20209 -42.72275 -81.75141 -67.60607 133.56492 109.99418 17.00504 4.78285 -10.0523 42.88677 19.42965 106.81588 -86.70979 -10.82247 4.71911 -4.79131 13.69369 -29.03942 -12.56237 -8.916 -7e-05 13.00613 5.74371 -6.61483 20.33505 -16.93908 -1.73754 2.74113 6.24088
0.01611 0.56539 -0.08228 174.75791 0 -4.66251 12.76717 6.90535 -3.14797 -31.05885 0.41992 1.10299 -43.90107 -81.46465 -68.80403 133.22038 108.5361 15.46979 6.02711 -8.16864 42.49974 16.73605 103.14916 -89.46565 -12.35599 5.20694 -4.84922 13.69369 -28.76904 -12.50095 -8.74912 -6e-05 13.00613 5.71648 -6.68726 20.24069 -17.04817 -1.6962 2.74342 6.03737
0.01553 0.56525 -0.08326 175.01561 0 -4.48943 12.53952 6.82776 -2.86146 -30.5201 0.06102 0.96805 -45.11523 -81.18409 -70.01918 132.89498 107.14331 13.95675 7.12073 -6.3937 42.12258 14.20015 99.63735 -91.93466 -13.71718 5.6634 -4.91184 13.69369 -28.49615 -12.43892 -8.58016 -6e-05 13.00613 5.6768 -6.76183 20.15015 -17.13592 -1.65101 2.74084 5.84789
0.01495 0.56511 -0.08424 175.29584 0 -4.30799 12.31091 6.7317 -2.55589 -29.96994 -0.32757 0.82637 -46.69263 -80.83569 -71.5778 132.66365 106.16924 12.56347 8.51881 -4.59181 41.84508 11.58103 96.23862 -94.708 -15.22121 6.18025 -4.97129 13.69369 -28.20065 -12.37469 -8.40566 -5e-05 13.00613 5.66318 -6.83703 20.04328 -17.27614 -1.60599 2.74308 5.65545
0.01437 0.56497 -0.08523 175.53227 0 -4.14339 12.08104 6.6784 -2.30386 -29.44715 -0.64969 0.7189 -47.4417 -80.63829 -72.36011 132.21396 104.26916 10.89913 9.32201 -2.79483 41.3405 9.06689 92.50384 -96.95905 -16.49872 6.57978 -5.03564 13.69369 -27.95356 -12.31495 -8.24288 -5e-05 13.00613 5.59859 -6.90969 19.97164 -17.31127 -1.56308 2.73769 5.46376
0.0137 0.56483 -0.08625 175.65968 0 -4.02407 11.85625 6.73364 -2.18329 -28.99953 -0.8026 0.68134 -46.04367 -80.82329 -71.13208 131.18891 99.5729 8.4393 8.45031 -1.05927 40.24702 6.90487 88.02321 -97.62833 -17.08114 6.6378 -5.11422 13.69369 -27.84657 -12.26928 -8.12927 -4e-05 13.00613 5.38818 -6.97812 19.98967 -17.05235 -1.52323 2.70636 5.27229
0.01301 0.5647 -0.08729 175.73754 0 -3.92199 11.62959 6.83219 -2.11519 -28.57902 -0.88657 0.67653 -43.81004 -81.16754 -69.11709 129.9459 94.01805 5.72121 6.97292 0.65924 38.92348 4.86412 83.20747 -97.75451 -17.42144 6.57643 -5.19847 13.69369 -27.7843 -12.2273 -8.02423 -3e-05 13.00614 5.12636 -7.04391 20.04496 -16.68684 -1.48557 2.66768 5.0848
0.01235 0.56456 -0.08832 175.82507 0 -3.81305 11.40038 6.91457 -2.02355 -28.14446 -0.99587 0.65938 -41.90487 -81.45716 -67.40445 128.79933 89.07114 3.17023 5.76363 2.38253 37.69255 2.77604 78.48747 -98.14818 -17.87192 6.57525 -5.28128 13.69369 -27.69351 -12.18174 -7.90265 -2e-05 13.00614 4.88886 -7.11004 20.08842 -16.3688 -1.44778 2.63441 4.90184
0.01165 0.56441 -0.08935 175.96879 0 -3.69998 11.18548 6.98314 -1.93081 -27.7169 -1.13246 0.63322 -40.19344 -81.66561 -65.90599 127.66162 83.19114 0.41196 4.5848 4.13527 36.51102 0.63875 73.9783 -98.4878 -18.34225 6.55372 -5.35893 13.69369 -27.63932 -12.14438 -7.83311 -1e-05 13.00614 4.64718 -7.17978 20.10984 -16.0544 -1.40678 2.59278 4.69063
0.01101 0.56429 -0.09039 175.98229 0 -3.59959 10.94 7.09003 -1.85441 -27.28193 -1.19295 0.63393 -37.90052 -82.0893 -63.79229 126.45365 79.05677 -1.98248 3.20384 5.8085 35.171 -1.35636 68.9729 -98.78417 -18.69749 6.54162 -5.4488 13.69369 -27.51774 -12.09075 -7.65912 -0 13.00614 4.4026 -7.24123 20.18657 -15.70834 -1.37262 2.56659 4.54009
0.01053 0.56424 -0.09147 175.65682 0 -3.53017 10.61482 7.29628 -1.7902 -26.81307 -1.08631 0.68936 -34.05946 -82.99396 -60.0436 125.11642 79.94373 -3.23831 1.34771 7.36091 33.46651 -3.04588 62.53648 -99.27279 -18.8997 6.61904 -5.57104 13.69369 -27.21161 -11.99142 -7.1777 1e-05 13.0061 4.15574 -7.28231 20.40241 -15.28788 -1.35942 2.5859 4.55206
0.01012 0.56422 -0.09257 175.20052 0 -3.47289 10.25823 7.53865 -1.74432 -26.33766 -0.90065 0.77283 -29.68983 -84.12255 -55.72801 123.71478 82.61944 -4.1304 -0.67974 8.81568 31.60794 -4.58491 55.64283 -99.70459 -18.97482 6.70335 -5.70542 13.69368 -26.8338 -11.87559 -6.5941 3e-05 13.00606 3.90896 -7.31483 20.67336 -14.84163 -1.35255 2.62077 4.62577
0.00968 0.56419 -0.09366 174.79802 0 -3.40995 9.91322 7.76183 -1.7026 -25.86881 -0.73412 0.85009 -25.66107 -85.19867 -51.75733 122.33505 84.48548 -5.2366 -2.58675 10.25118 29.80884 -6.15277 49.05182 -100.03785 -19.03526 6.76197 -5.83432 13.69368 -26.48028 -11.76721 -6.0682 5e-05 13.00602 3.66652 -7.35008 20.92217 -14.41553 -1.34097 2.64775 4.67415
0.00924 0.56416 -0.09476 174.41659 0 -3.34824 9.57935 7.99871 -1.60898 -25.3831 -0.63609 0.8994 -21.18194 -86.07644 -47.39042 120.9769 86.3125 -6.15135 -4.69417 11.95241 28.0451 -7.88074 42.04069 -100.8619 -19.38651 6.91217 -5.96335 13.69368 -26.16268 -11.65904 -5.49459 7e-05 13.00597 3.40371 -7.39011 21.16046 -13.94981 -1.33702 2.67786 4.71151
0.00881 0.56413 -0.09585 173.96224 0 -3.28661 9.21502 8.21449 -1.62845 -24.93393 -0.37744 1.01513 -17.52132 -87.41319 -43.72465 119.56363 88.65074 -7.36818 -6.41748 13.08034 26.17552 -9.24465 35.81015 -100.67684 -19.11346 6.87422 -6.09479 13.69367 -25.75348 -11.5466 -4.99655 8e-05 13.00594 3.18415 -7.41823 21.43273 -13.56231 -1.31888 2.70532 4.78595
0.0084 0.5641 -0.09692 173.32766 0 -3.22219 8.77299 8.36773 -1.94385 -24.55944 0.30416 1.28965 -16.29686 -90.00591 -42.13672 117.99649 92.0197 -9.56575 -7.03049 12.62273 24.042 -9.6079 31.76816 -97.55145 -17.076 6.32191 -6.23096 13.69367 -25.10248 -11.42535 -4.72723 9e-05 13.00593 3.08318 -7.41532 21.78919 -13.39423 -1.25812 2.72104 4.95197
0.00801 0.56407 -0.09799 172.6271 0 -3.15734 8.30181 8.49741 -2.37416 -24.22759 1.14418 1.63284 -15.90938 -93.04303 -41.27737 116.38111 95.83441 -12.06738 -7.24924 11.59771 21.81119 -9.61601 28.54481 -93.44601 -14.4298 5.58043 -6.36882 13.69367 -24.36342 -11.30068 -4.5383 9e-05 13.00594 3.02621 -7.4008 22.17658 -13.30696 -1.18321 2.73368 5.15226
0.0076 0.56403 -0.09906 171.96335 0 -3.09262 7.84462 8.63471 -2.75966 -23.89356 1.91262 1.95651 -15.11308 -95.84852 -40.08652 114.79951 99.41319 -14.39131 -7.65075 10.84832 19.63101 -9.80911 24.99901 -89.90253 -12.10968 4.92025 -6.50536 13.69367 -23.6678 -11.17805 -4.31586 0.0001 13.00594 2.94985 -7.39175 22.54766 -13.18498 -1.11596 2.7482 5.3342
